<svg id="Layer_1" data-name="Layer 1" xmlns="http://www.w3.org/2000/svg" viewBox="0 0 193.45 202.9"><defs><style>.cls-1,.cls-3{fill:#fff;}.cls-2{fill:none;stroke:#fff;stroke-linecap:round;stroke-miterlimit:10;stroke-width:10px;}.cls-3{font-size:50px;font-family:Poppins-Black, Poppins;font-weight:800;letter-spacing:0.28em;}</style></defs><path class="cls-1" d="M75.64,30c28.94,0,44.64,19.25,44.64,45.12,0,24.9-14.47,47.34-44.64,47.34C44,122.42,31,101.81,31,75.08,31,49.21,46.71,30,75.64,30Zm0,76.27c18.28,0,24.53-14.23,24.53-31.15S92.08,46.14,75.64,46.14s-24.52,12-24.52,28.94S56.76,106.23,75.64,106.23Z" transform="translate(-4.55 -6.71)"/><path class="cls-2" d="M154.61,115.21C90.69,136.65,183.22,47.64,107.73,51" transform="translate(-4.55 -6.71)"/><path class="cls-1" d="M62.45,20.1C50.23,21.75,47.31,25,43.36,28.33a1.68,1.68,0,0,1-2.73-1.65c1.1-4.79,2.6-12.41,2.7-17.69A2.31,2.31,0,0,1,47,7.12L63,18.24a1,1,0,0,1,.35,1.37A1,1,0,0,1,62.45,20.1Z" transform="translate(-4.55 -6.71)"/><path class="cls-1" d="M88.84,20.1C101.09,21.75,104,25,107.93,28.33a1.68,1.68,0,0,0,2.73-1.65C109.56,21.89,108,14.27,108,9a2.31,2.31,0,0,0-3.63-1.87l-16,11.12A1,1,0,0,0,88,19.61,1,1,0,0,0,88.84,20.1Z" transform="translate(-4.55 -6.71)"/><text class="cls-3" transform="translate(0 171.55)">HERO</text></svg>