<svg width="607.101" height="83.401" viewBox="0 0 607.101 83.401" xmlns="http://www.w3.org/2000/svg"><g id="svgGroup" stroke-linecap="round" fill-rule="evenodd" font-size="9pt" stroke="#000" stroke-width="0.25mm" fill="none" style="stroke:#fff;stroke-width:0.25mm;fill:none"><path d="M 245.679 82.372 A 47.118 47.118 0 0 0 255.7 83.401 A 50.416 50.416 0 0 0 260.866 83.142 A 40.937 40.937 0 0 0 272.75 80.151 Q 280.4 76.901 285.9 71.201 Q 291.4 65.501 294.4 57.951 A 41.159 41.159 0 0 0 295.569 54.592 A 44.576 44.576 0 0 0 297.4 41.701 A 49.55 49.55 0 0 0 297.374 40.079 A 43.128 43.128 0 0 0 294.4 25.451 Q 291.4 17.901 285.9 12.201 Q 280.4 6.501 272.75 3.251 A 39.227 39.227 0 0 0 265.721 1.029 A 47.118 47.118 0 0 0 255.7 0.001 A 50.416 50.416 0 0 0 250.534 0.259 A 40.937 40.937 0 0 0 238.65 3.251 Q 231 6.501 225.5 12.201 Q 220 17.901 217 25.451 A 41.159 41.159 0 0 0 215.831 28.809 A 44.576 44.576 0 0 0 214 41.701 A 49.55 49.55 0 0 0 214.026 43.322 A 43.128 43.128 0 0 0 217 57.951 Q 220 65.501 225.5 71.201 Q 231 76.901 238.65 80.151 A 39.227 39.227 0 0 0 245.679 82.372 Z M 555.379 82.372 A 47.118 47.118 0 0 0 565.4 83.401 A 50.416 50.416 0 0 0 570.566 83.142 A 40.937 40.937 0 0 0 582.45 80.151 Q 590.1 76.901 595.6 71.201 Q 601.1 65.501 604.1 57.951 A 41.159 41.159 0 0 0 605.269 54.592 A 44.576 44.576 0 0 0 607.1 41.701 A 49.55 49.55 0 0 0 607.074 40.079 A 43.128 43.128 0 0 0 604.1 25.451 Q 601.1 17.901 595.6 12.201 Q 590.1 6.501 582.45 3.251 A 39.227 39.227 0 0 0 575.421 1.029 A 47.118 47.118 0 0 0 565.4 0.001 A 50.416 50.416 0 0 0 560.234 0.259 A 40.937 40.937 0 0 0 548.35 3.251 Q 540.7 6.501 535.2 12.201 Q 529.7 17.901 526.7 25.451 A 41.159 41.159 0 0 0 525.531 28.809 A 44.576 44.576 0 0 0 523.7 41.701 A 49.55 49.55 0 0 0 523.726 43.322 A 43.128 43.128 0 0 0 526.7 57.951 Q 529.7 65.501 535.2 71.201 Q 540.7 76.901 548.35 80.151 A 39.227 39.227 0 0 0 555.379 82.372 Z M 294.4 41.701 A 41.278 41.278 0 0 0 292.063 27.758 A 39.341 39.341 0 0 0 291.65 26.651 Q 288.9 19.601 283.8 14.301 Q 278.7 9.001 271.6 6.001 A 37.998 37.998 0 0 0 261.034 3.294 A 47.333 47.333 0 0 0 255.7 3.001 A 44.478 44.478 0 0 0 246.399 3.937 A 36.477 36.477 0 0 0 239.8 6.001 Q 232.7 9.001 227.6 14.301 Q 222.5 19.601 219.75 26.651 A 40.916 40.916 0 0 0 217.003 41.201 A 46.288 46.288 0 0 0 217 41.701 A 41.278 41.278 0 0 0 219.337 55.643 A 39.341 39.341 0 0 0 219.75 56.751 Q 222.5 63.801 227.6 69.101 Q 232.7 74.401 239.8 77.401 A 37.998 37.998 0 0 0 250.366 80.108 A 47.333 47.333 0 0 0 255.7 80.401 A 44.478 44.478 0 0 0 265.001 79.464 A 36.477 36.477 0 0 0 271.6 77.401 Q 278.7 74.401 283.8 69.101 Q 288.9 63.801 291.65 56.751 A 40.916 40.916 0 0 0 294.397 42.2 A 46.288 46.288 0 0 0 294.4 41.701 Z M 604.1 41.701 A 41.278 41.278 0 0 0 601.763 27.758 A 39.341 39.341 0 0 0 601.35 26.651 Q 598.6 19.601 593.5 14.301 Q 588.4 9.001 581.3 6.001 A 37.998 37.998 0 0 0 570.734 3.294 A 47.333 47.333 0 0 0 565.4 3.001 A 44.478 44.478 0 0 0 556.099 3.937 A 36.477 36.477 0 0 0 549.5 6.001 Q 542.4 9.001 537.3 14.301 Q 532.2 19.601 529.45 26.651 A 40.916 40.916 0 0 0 526.703 41.201 A 46.288 46.288 0 0 0 526.7 41.701 A 41.278 41.278 0 0 0 529.037 55.643 A 39.341 39.341 0 0 0 529.45 56.751 Q 532.2 63.801 537.3 69.101 Q 542.4 74.401 549.5 77.401 A 37.998 37.998 0 0 0 560.066 80.108 A 47.333 47.333 0 0 0 565.4 80.401 A 44.478 44.478 0 0 0 574.701 79.464 A 36.477 36.477 0 0 0 581.3 77.401 Q 588.4 74.401 593.5 69.101 Q 598.6 63.801 601.35 56.751 A 40.916 40.916 0 0 0 604.097 42.2 A 46.288 46.288 0 0 0 604.1 41.701 Z M 184.8 48.301 L 161.3 48.301 L 161.3 45.301 L 184.8 45.301 A 22.454 22.454 0 0 0 191.829 44.224 A 20.412 20.412 0 0 0 195.15 42.801 Q 199.8 40.301 202.55 35.701 A 19.24 19.24 0 0 0 205.031 28.619 A 24.929 24.929 0 0 0 205.3 24.901 Q 205.3 18.701 202.55 14.101 Q 199.8 9.501 195.15 7.001 A 21.182 21.182 0 0 0 186.034 4.53 A 25.24 25.24 0 0 0 184.8 4.501 L 161.3 4.501 L 161.3 1.501 L 184.8 1.501 A 24.791 24.791 0 0 1 193.55 3.025 A 23.321 23.321 0 0 1 196.65 4.451 Q 202 7.401 205.15 12.651 A 22.003 22.003 0 0 1 208.051 21.101 A 28.149 28.149 0 0 1 208.3 24.901 Q 208.3 31.901 205.15 37.151 Q 202 42.401 196.65 45.351 A 23.947 23.947 0 0 1 185.608 48.289 A 28.181 28.181 0 0 1 184.8 48.301 Z M 494.5 48.301 L 471 48.301 L 471 45.301 L 494.5 45.301 A 22.454 22.454 0 0 0 501.529 44.224 A 20.412 20.412 0 0 0 504.85 42.801 Q 509.5 40.301 512.25 35.701 A 19.24 19.24 0 0 0 514.731 28.619 A 24.929 24.929 0 0 0 515 24.901 Q 515 18.701 512.25 14.101 Q 509.5 9.501 504.85 7.001 A 21.182 21.182 0 0 0 495.734 4.53 A 25.24 25.24 0 0 0 494.5 4.501 L 471 4.501 L 471 1.501 L 494.5 1.501 A 24.791 24.791 0 0 1 503.25 3.025 A 23.321 23.321 0 0 1 506.35 4.451 Q 511.7 7.401 514.85 12.651 A 22.003 22.003 0 0 1 517.751 21.101 A 28.149 28.149 0 0 1 518 24.901 Q 518 31.901 514.85 37.151 Q 511.7 42.401 506.35 45.351 A 23.947 23.947 0 0 1 495.308 48.289 A 28.181 28.181 0 0 1 494.5 48.301 Z M 255.7 76.801 Q 247.7 76.801 241.25 74.051 Q 234.8 71.301 230.15 66.501 Q 225.5 61.701 223.05 55.351 A 37.162 37.162 0 0 1 220.623 43.117 A 42.698 42.698 0 0 1 220.6 41.701 A 38.453 38.453 0 0 1 222.095 30.874 A 35.376 35.376 0 0 1 223.05 28.051 Q 225.5 21.701 230.15 16.851 Q 234.8 12.001 241.25 9.301 A 34.77 34.77 0 0 1 250.822 6.868 A 43.426 43.426 0 0 1 255.7 6.601 Q 263.7 6.601 270.15 9.301 Q 276.6 12.001 281.25 16.851 Q 285.9 21.701 288.35 28.051 A 37.162 37.162 0 0 1 290.777 40.284 A 42.698 42.698 0 0 1 290.8 41.701 A 38.453 38.453 0 0 1 289.305 52.527 A 35.376 35.376 0 0 1 288.35 55.351 Q 285.9 61.701 281.25 66.501 Q 276.6 71.301 270.15 74.051 A 34.273 34.273 0 0 1 260.549 76.532 A 42.666 42.666 0 0 1 255.7 76.801 Z M 565.4 76.801 Q 557.4 76.801 550.95 74.051 Q 544.5 71.301 539.85 66.501 Q 535.2 61.701 532.75 55.351 A 37.162 37.162 0 0 1 530.323 43.117 A 42.698 42.698 0 0 1 530.3 41.701 A 38.453 38.453 0 0 1 531.795 30.874 A 35.376 35.376 0 0 1 532.75 28.051 Q 535.2 21.701 539.85 16.851 Q 544.5 12.001 550.95 9.301 A 34.77 34.77 0 0 1 560.522 6.868 A 43.426 43.426 0 0 1 565.4 6.601 Q 573.4 6.601 579.85 9.301 Q 586.3 12.001 590.95 16.851 Q 595.6 21.701 598.05 28.051 A 37.162 37.162 0 0 1 600.477 40.284 A 42.698 42.698 0 0 1 600.5 41.701 A 38.453 38.453 0 0 1 599.005 52.527 A 35.376 35.376 0 0 1 598.05 55.351 Q 595.6 61.701 590.95 66.501 Q 586.3 71.301 579.85 74.051 A 34.273 34.273 0 0 1 570.249 76.532 A 42.666 42.666 0 0 1 565.4 76.801 Z M 287.8 41.701 A 35.052 35.052 0 0 0 286.125 30.745 A 31.794 31.794 0 0 0 283.9 25.551 Q 280 18.301 272.8 14.001 A 29.997 29.997 0 0 0 262.187 10.209 A 39.883 39.883 0 0 0 255.7 9.701 A 37.752 37.752 0 0 0 247.073 10.645 A 29.659 29.659 0 0 0 238.65 14.001 Q 231.4 18.301 227.5 25.551 A 32.964 32.964 0 0 0 223.661 39.501 A 39.276 39.276 0 0 0 223.6 41.701 A 34.412 34.412 0 0 0 225.782 54.027 A 32.497 32.497 0 0 0 227.5 57.801 Q 231.4 65.101 238.65 69.401 A 30.492 30.492 0 0 0 249.824 73.281 A 39.783 39.783 0 0 0 255.7 73.701 A 38.255 38.255 0 0 0 264.253 72.787 A 29.307 29.307 0 0 0 272.8 69.401 Q 280 65.101 283.9 57.801 A 33.435 33.435 0 0 0 287.791 42.522 A 39.247 39.247 0 0 0 287.8 41.701 Z M 597.5 41.701 A 35.052 35.052 0 0 0 595.825 30.745 A 31.794 31.794 0 0 0 593.6 25.551 Q 589.7 18.301 582.5 14.001 A 29.997 29.997 0 0 0 571.887 10.209 A 39.883 39.883 0 0 0 565.4 9.701 A 37.752 37.752 0 0 0 556.773 10.645 A 29.659 29.659 0 0 0 548.35 14.001 Q 541.1 18.301 537.2 25.551 A 32.964 32.964 0 0 0 533.361 39.501 A 39.276 39.276 0 0 0 533.3 41.701 A 34.412 34.412 0 0 0 535.482 54.027 A 32.497 32.497 0 0 0 537.2 57.801 Q 541.1 65.101 548.35 69.401 A 30.492 30.492 0 0 0 559.524 73.281 A 39.783 39.783 0 0 0 565.4 73.701 A 38.255 38.255 0 0 0 573.953 72.787 A 29.307 29.307 0 0 0 582.5 69.401 Q 589.7 65.101 593.6 57.801 A 33.435 33.435 0 0 0 597.491 42.522 A 39.247 39.247 0 0 0 597.5 41.701 Z M 184.8 41.701 L 161.3 41.701 L 161.3 38.701 L 184.8 38.701 A 15.285 15.285 0 0 0 190.239 37.759 A 13.855 13.855 0 0 0 194.65 35.051 A 11.958 11.958 0 0 0 198.41 28.175 A 17.634 17.634 0 0 0 198.7 24.901 A 16.743 16.743 0 0 0 198.183 20.618 A 11.753 11.753 0 0 0 194.65 14.751 Q 190.6 11.101 184.8 11.101 L 161.3 11.101 L 161.3 8.101 L 184.8 8.101 A 18.574 18.574 0 0 1 190.323 8.901 A 16.59 16.59 0 0 1 193.3 10.151 Q 197.1 12.201 199.4 15.951 Q 201.7 19.701 201.7 24.901 A 19.713 19.713 0 0 1 201.228 29.315 A 15.038 15.038 0 0 1 199.4 33.851 Q 197.1 37.601 193.3 39.651 A 17.25 17.25 0 0 1 186.104 41.66 A 20.727 20.727 0 0 1 184.8 41.701 Z M 494.5 41.701 L 471 41.701 L 471 38.701 L 494.5 38.701 A 15.285 15.285 0 0 0 499.939 37.759 A 13.855 13.855 0 0 0 504.35 35.051 A 11.958 11.958 0 0 0 508.11 28.175 A 17.634 17.634 0 0 0 508.4 24.901 A 16.743 16.743 0 0 0 507.883 20.618 A 11.753 11.753 0 0 0 504.35 14.751 Q 500.3 11.101 494.5 11.101 L 471 11.101 L 471 8.101 L 494.5 8.101 A 18.574 18.574 0 0 1 500.023 8.901 A 16.59 16.59 0 0 1 503 10.151 Q 506.8 12.201 509.1 15.951 Q 511.4 19.701 511.4 24.901 A 19.713 19.713 0 0 1 510.928 29.315 A 15.038 15.038 0 0 1 509.1 33.851 Q 506.8 37.601 503 39.651 A 17.25 17.25 0 0 1 495.804 41.66 A 20.727 20.727 0 0 1 494.5 41.701 Z M 3.5 81.901 L 0 81.901 L 49.9 1.501 L 53.4 1.501 L 3.5 81.901 Z M 18.9 81.901 L 15.4 81.901 L 65.3 1.501 L 68.8 1.501 L 18.9 81.901 Z M 11.2 81.901 L 7.7 81.901 L 57.6 1.501 L 61.1 1.501 L 11.2 81.901 Z M 248.391 69.464 A 34.611 34.611 0 0 0 255.7 70.201 Q 264.6 70.201 271 66.351 Q 277.4 62.501 280.8 56.001 Q 284.2 49.501 284.2 41.701 A 35.508 35.508 0 0 0 284.147 39.748 A 29.764 29.764 0 0 0 280.8 27.351 Q 277.4 20.901 271 17.051 A 26.027 26.027 0 0 0 263.009 13.937 A 34.611 34.611 0 0 0 255.7 13.201 Q 246.8 13.201 240.4 17.051 Q 234 20.901 230.6 27.351 A 28.63 28.63 0 0 0 228.647 32.011 A 31.709 31.709 0 0 0 227.2 41.701 A 35.243 35.243 0 0 0 227.213 42.67 A 30.156 30.156 0 0 0 230.6 56.001 Q 234 62.501 240.4 66.351 A 26.027 26.027 0 0 0 248.391 69.464 Z M 558.091 69.464 A 34.611 34.611 0 0 0 565.4 70.201 Q 574.3 70.201 580.7 66.351 Q 587.1 62.501 590.5 56.001 Q 593.9 49.501 593.9 41.701 A 35.508 35.508 0 0 0 593.847 39.748 A 29.764 29.764 0 0 0 590.5 27.351 Q 587.1 20.901 580.7 17.051 A 26.027 26.027 0 0 0 572.709 13.937 A 34.611 34.611 0 0 0 565.4 13.201 Q 556.5 13.201 550.1 17.051 Q 543.7 20.901 540.3 27.351 A 28.63 28.63 0 0 0 538.347 32.011 A 31.709 31.709 0 0 0 536.9 41.701 A 35.243 35.243 0 0 0 536.913 42.67 A 30.156 30.156 0 0 0 540.3 56.001 Q 543.7 62.501 550.1 66.351 A 26.027 26.027 0 0 0 558.091 69.464 Z M 90 81.901 L 87 81.901 L 87 1.501 L 90 1.501 L 90 81.901 Z M 76.8 81.901 L 73.8 81.901 L 73.8 1.501 L 76.8 1.501 L 76.8 81.901 Z M 83.4 81.901 L 80.4 81.901 L 80.4 1.501 L 83.4 1.501 L 83.4 81.901 Z M 157.7 81.901 L 154.7 81.901 L 154.7 1.501 L 157.7 1.501 L 157.7 81.901 Z M 144.5 81.901 L 141.5 81.901 L 141.5 1.501 L 144.5 1.501 L 144.5 81.901 Z M 151.1 81.901 L 148.1 81.901 L 148.1 1.501 L 151.1 1.501 L 151.1 81.901 Z M 321.6 81.901 L 318.6 81.901 L 318.6 1.501 L 321.6 1.501 L 321.6 81.901 Z M 308.4 81.901 L 305.4 81.901 L 305.4 1.501 L 308.4 1.501 L 308.4 81.901 Z M 315 81.901 L 312 81.901 L 312 1.501 L 315 1.501 L 315 81.901 Z M 373.5 81.901 L 370.5 81.901 L 370.5 1.501 L 373.5 1.501 L 373.5 81.901 Z M 360.3 81.901 L 357.3 81.901 L 357.3 1.501 L 360.3 1.501 L 360.3 81.901 Z M 366.9 81.901 L 363.9 81.901 L 363.9 1.501 L 366.9 1.501 L 366.9 81.901 Z M 399.7 81.901 L 396.7 81.901 L 396.7 1.501 L 399.7 1.501 L 399.7 81.901 Z M 386.5 81.901 L 383.5 81.901 L 383.5 1.501 L 386.5 1.501 L 386.5 81.901 Z M 393.1 81.901 L 390.1 81.901 L 390.1 1.501 L 393.1 1.501 L 393.1 81.901 Z M 467.4 81.901 L 464.4 81.901 L 464.4 1.501 L 467.4 1.501 L 467.4 81.901 Z M 454.2 81.901 L 451.2 81.901 L 451.2 1.501 L 454.2 1.501 L 454.2 81.901 Z M 460.8 81.901 L 457.8 81.901 L 457.8 1.501 L 460.8 1.501 L 460.8 81.901 Z M 281.2 41.701 A 28.261 28.261 0 0 0 279.846 32.859 A 25.738 25.738 0 0 0 278.2 28.951 Q 275.2 23.201 269.5 19.751 Q 263.8 16.301 255.7 16.301 A 31.196 31.196 0 0 0 249.131 16.961 A 23.419 23.419 0 0 0 241.95 19.751 Q 236.2 23.201 233.2 28.951 A 26.74 26.74 0 0 0 230.236 40.184 A 31.749 31.749 0 0 0 230.2 41.701 A 28.261 28.261 0 0 0 231.554 50.543 A 25.738 25.738 0 0 0 233.2 54.451 Q 236.2 60.201 241.95 63.651 A 23.735 23.735 0 0 0 250.016 66.615 A 31.927 31.927 0 0 0 255.7 67.101 A 31.73 31.73 0 0 0 262.218 66.464 A 23.101 23.101 0 0 0 269.5 63.651 Q 275.2 60.201 278.2 54.451 A 26.74 26.74 0 0 0 281.164 43.217 A 31.749 31.749 0 0 0 281.2 41.701 Z M 590.9 41.701 A 28.261 28.261 0 0 0 589.546 32.859 A 25.738 25.738 0 0 0 587.9 28.951 Q 584.9 23.201 579.2 19.751 Q 573.5 16.301 565.4 16.301 A 31.196 31.196 0 0 0 558.831 16.961 A 23.419 23.419 0 0 0 551.65 19.751 Q 545.9 23.201 542.9 28.951 A 26.74 26.74 0 0 0 539.936 40.184 A 31.749 31.749 0 0 0 539.9 41.701 A 28.261 28.261 0 0 0 541.254 50.543 A 25.738 25.738 0 0 0 542.9 54.451 Q 545.9 60.201 551.65 63.651 A 23.735 23.735 0 0 0 559.716 66.615 A 31.927 31.927 0 0 0 565.4 67.101 A 31.73 31.73 0 0 0 571.918 66.464 A 23.101 23.101 0 0 0 579.2 63.651 Q 584.9 60.201 587.9 54.451 A 26.74 26.74 0 0 0 590.864 43.217 A 31.749 31.749 0 0 0 590.9 41.701 Z M 184.8 35.101 L 161.3 35.101 L 161.3 32.101 L 184.8 32.101 A 8.579 8.579 0 0 0 187.658 31.639 A 7.584 7.584 0 0 0 189.95 30.351 Q 191.907 28.758 192.083 25.549 A 11.866 11.866 0 0 0 192.1 24.901 Q 192.1 22.412 191.178 20.825 A 4.991 4.991 0 0 0 189.95 19.401 A 7.873 7.873 0 0 0 185.537 17.727 A 10.058 10.058 0 0 0 184.8 17.701 L 161.3 17.701 L 161.3 14.701 L 184.8 14.701 A 11.795 11.795 0 0 1 188.718 15.33 A 10.333 10.333 0 0 1 192.1 17.301 A 8.363 8.363 0 0 1 194.741 21.73 Q 195.1 23.172 195.1 24.901 A 13.281 13.281 0 0 1 194.777 27.923 Q 194.265 30.112 192.944 31.653 A 8.089 8.089 0 0 1 192.1 32.501 A 10.587 10.587 0 0 1 185.595 35.078 A 13.646 13.646 0 0 1 184.8 35.101 Z M 494.5 35.101 L 471 35.101 L 471 32.101 L 494.5 32.101 A 8.579 8.579 0 0 0 497.358 31.639 A 7.584 7.584 0 0 0 499.65 30.351 Q 501.607 28.758 501.783 25.549 A 11.866 11.866 0 0 0 501.8 24.901 Q 501.8 22.412 500.878 20.825 A 4.991 4.991 0 0 0 499.65 19.401 A 7.873 7.873 0 0 0 495.237 17.727 A 10.058 10.058 0 0 0 494.5 17.701 L 471 17.701 L 471 14.701 L 494.5 14.701 A 11.795 11.795 0 0 1 498.418 15.33 A 10.333 10.333 0 0 1 501.8 17.301 A 8.363 8.363 0 0 1 504.441 21.73 Q 504.8 23.172 504.8 24.901 A 13.281 13.281 0 0 1 504.477 27.923 Q 503.965 30.112 502.644 31.653 A 8.089 8.089 0 0 1 501.8 32.501 A 10.587 10.587 0 0 1 495.295 35.078 A 13.646 13.646 0 0 1 494.5 35.101 Z M 133.5 4.501 L 93.6 4.501 L 93.6 1.501 L 133.5 1.501 L 133.5 4.501 Z M 133.5 11.101 L 93.6 11.101 L 93.6 8.101 L 133.5 8.101 L 133.5 11.101 Z M 133.5 17.701 L 93.6 17.701 L 93.6 14.701 L 133.5 14.701 L 133.5 17.701 Z M 133.5 68.701 L 93.6 68.701 L 93.6 65.701 L 133.5 65.701 L 133.5 68.701 Z M 133.5 75.301 L 93.6 75.301 L 93.6 72.301 L 133.5 72.301 L 133.5 75.301 Z M 133.5 81.901 L 93.6 81.901 L 93.6 78.901 L 133.5 78.901 L 133.5 81.901 Z M 443.2 4.501 L 403.3 4.501 L 403.3 1.501 L 443.2 1.501 L 443.2 4.501 Z M 443.2 11.101 L 403.3 11.101 L 403.3 8.101 L 443.2 8.101 L 443.2 11.101 Z M 443.2 17.701 L 403.3 17.701 L 403.3 14.701 L 443.2 14.701 L 443.2 17.701 Z M 443.2 68.701 L 403.3 68.701 L 403.3 65.701 L 443.2 65.701 L 443.2 68.701 Z M 443.2 75.301 L 403.3 75.301 L 403.3 72.301 L 443.2 72.301 L 443.2 75.301 Z M 443.2 81.901 L 403.3 81.901 L 403.3 78.901 L 443.2 78.901 L 443.2 81.901 Z M 61.6 81.901 L 22.6 81.901 L 24.4 78.901 L 61.6 78.901 L 61.6 81.901 Z M 43.9 4.501 L 7.2 4.501 L 7.2 1.501 L 45.7 1.501 L 43.9 4.501 Z M 207.5 81.901 L 204.2 81.901 L 190.1 51.001 Q 190.8 50.901 191.55 50.751 Q 192.3 50.601 193 50.301 L 207.5 81.901 Z M 517.2 81.901 L 513.9 81.901 L 499.8 51.001 Q 500.5 50.901 501.25 50.751 Q 502 50.601 502.7 50.301 L 517.2 81.901 Z M 61.6 75.301 L 26.6 75.301 L 28.5 72.301 L 61.6 72.301 L 61.6 75.301 Z M 127.8 36.601 L 93.6 36.601 L 93.6 33.601 L 127.8 33.601 L 127.8 36.601 Z M 127.8 43.201 L 93.6 43.201 L 93.6 40.201 L 127.8 40.201 L 127.8 43.201 Z M 127.8 49.801 L 93.6 49.801 L 93.6 46.801 L 127.8 46.801 L 127.8 49.801 Z M 437.5 36.601 L 403.3 36.601 L 403.3 33.601 L 437.5 33.601 L 437.5 36.601 Z M 437.5 43.201 L 403.3 43.201 L 403.3 40.201 L 437.5 40.201 L 437.5 43.201 Z M 437.5 49.801 L 403.3 49.801 L 403.3 46.801 L 437.5 46.801 L 437.5 49.801 Z M 39.8 11.101 L 7.2 11.101 L 7.2 8.101 L 41.7 8.101 L 39.8 11.101 Z M 200.2 81.901 L 196.9 81.901 L 183 51.701 A 27.787 27.787 0 0 0 184.438 51.662 A 30.51 30.51 0 0 0 184.65 51.651 Q 185.5 51.601 186.3 51.501 L 200.2 81.901 Z M 509.9 81.901 L 506.6 81.901 L 492.7 51.701 A 27.787 27.787 0 0 0 494.138 51.662 A 30.51 30.51 0 0 0 494.35 51.651 Q 495.2 51.601 496 51.501 L 509.9 81.901 Z M 192.9 81.901 L 189.6 81.901 L 175.8 51.801 L 179.1 51.801 L 192.9 81.901 Z M 502.6 81.901 L 499.3 81.901 L 485.5 51.801 L 488.8 51.801 L 502.6 81.901 Z M 61.6 68.701 L 30.7 68.701 L 32.6 65.701 L 61.6 65.701 L 61.6 68.701 Z M 35.7 17.701 L 7.2 17.701 L 7.2 14.701 L 37.6 14.701 L 35.7 17.701 Z M 353.7 36.601 L 325.2 36.601 L 325.2 33.601 L 353.7 33.601 L 353.7 36.601 Z M 353.7 43.201 L 325.2 43.201 L 325.2 40.201 L 353.7 40.201 L 353.7 43.201 Z M 353.7 49.801 L 325.2 49.801 L 325.2 46.801 L 353.7 46.801 L 353.7 49.801 Z" vector-effect="non-scaling-stroke"/></g></svg>